<?xml version="1.0" encoding="utf-8"?>
<!-- Generator: Adobe Illustrator 16.0.4, SVG Export Plug-In . SVG Version: 6.00 Build 0)  -->
<!DOCTYPE svg PUBLIC "-//W3C//DTD SVG 1.1//EN" "http://www.w3.org/Graphics/SVG/1.1/DTD/svg11.dtd">
<svg version="1.1" id="Layer_1" xmlns="http://www.w3.org/2000/svg" xmlns:xlink="http://www.w3.org/1999/xlink" x="0px" y="0px"
	 width="500.0px" height="500.0px" viewBox="0 0 500 500" enable-background="new 0 0 500 500"
	 xml:space="preserve">

<g transform="translate(250 250)">
	<!-- sword -->
	<g transform="scale(.2 .2)">
		<g transform="translate(450 -650)">
			<g transform="rotate(45)">
				<polygon fill="#472b1f" points="-50,-50 50,-50 -50,50"/>
				<polygon fill="#472b1f" points="-50,50 50,-50 50,50"/>
				<g transform="translate(0 120)">
					<polygon fill="#472b1f" points="-50,-50 50,-50 -50,50"/>
					<polygon fill="#472b1f" points="-50,50 50,-50 50,50"/>
					<g transform="translate(0 120)">
						<polygon fill="#472b1f" points="-50,-50 50,-50 -50,50"/>
						<polygon fill="#472b1f" points="-50,50 50,-50 50,50"/>
						<g transform="translate(0 120)">
							<polygon fill="#dddddd" points="-50,-50 50,-50 -50,50"/>
							<polygon fill="#dddddd" points="-50,50 50,-50 50,50"/>
							<g transform="translate(0 120)">
								<polygon fill="#dddddd" points="-50,-50 50,-50 -50,50"/>
								<polygon fill="#dddddd" points="-50,50 50,-50 50,50"/>
								<g transform="translate(0 120)">
									<polygon fill="#dddddd" points="-50,-50 50,-50 -50,50"/>
									<polygon fill="#dddddd" points="-50,50 50,-50 50,50"/>
									<g transform="translate(0 120)">
										<polygon fill="#dddddd" points="-50,-50 50,-50 -50,50"/>
										<polygon fill="#dddddd" points="-50,50 50,-50 50,50"/>
										<g transform="translate(0 120)">
											<polygon fill="#dddddd" points="-50,-50 50,-50 -50,50"/>
											<polygon fill="#dddddd" points="-50,50 50,-50 50,50"/>
											<g transform="translate(0 120)">
												<polygon fill="#dddddd" points="-50,-50 50,-50 -50,50"/>
												<polygon fill="#dddddd" points="-50,50 50,-50 50,50"/>
												<g transform="translate(0 120)">
													<polygon fill="#dddddd" points="-50,-50 50,-50 -50,50"/>
													<polygon fill="#dddddd" points="-50,50 50,-50 50,50"/>
													<g transform="translate(0 120)">
														<polygon fill="#dddddd" points="-50,-50 50,-50 -50,50"/>
														<polygon fill="#dddddd" points="-50,50 50,-50 50,50"/>
													</g>
												</g>
											</g>
										</g>
									</g>
								</g>
							</g>
						</g>
					</g>
				</g>
			</g>
		</g>
	</g>

	<!-- torso -->
	<polygon fill="#000000" points="-50,-50 50,-50 -50,50 "/>
	<polygon fill="#000000" points="-50,50 50,-50 50,50"/>

	<!-- head -->
	<g transform="translate(0 -100)">
		<g transform="rotate(45)">
			<polygon fill="#f9ece5" points="-50,-50 50,-50 -50,50 "/>
			<polygon fill="#f9ece5" points="-50,50 50,-50 50,50"/>
			<polygon fill="#000000" points="-50,-50 25,-50 -50,25"/>
			<polygon fill="#000000" points="-25,50 50,-25 50,50"/>
		</g>
		<g transform="scale(.1 .2)">
			<g transform="translate(-280 0)">
				<polygon fill="#000000" points="-50,-50 50,-50 -50,50"/>
				<polygon fill="#000000" points="-50,50 50,-50 50,50"/>
			</g>
			<g transform="translate(280 0)">
				<polygon fill="#000000" points="-50,-50 50,-50 -50,50"/>
				<polygon fill="#000000" points="-50,50 50,-50 50,50"/>
			</g>

		</g>
	</g>

	<!-- left leg -->
	<g transform="scale(.2 .2)">
		<g transform ="translate(-120 280)">
			<polygon fill="#000000" points="-50,-50 50,-50 -50,50 "/>
			<polygon fill="#000000" points="-50,50 50,-50 50,50"/>
			<g transform ="translate(0 120)">
				<polygon fill="#000000" points="-50,-50 50,-50 -50,50 "/>
				<polygon fill="#000000" points="-50,50 50,-50 50,50"/>
				<g transform ="translate(0 120)">
					<polygon fill="#000000" points="-50,-50 50,-50 -50,50 "/>
					<polygon fill="#000000" points="-50,50 50,-50 50,50"/>
					<g transform ="translate(0 120)">
						<polygon fill="#000000" points="-50,-50 50,-50 -50,50 "/>
						<polygon fill="#000000" points="-50,50 50,-50 50,50"/>
					</g>
				</g>
			</g>
		</g>
	</g>

	<!-- right leg -->
	<g transform="scale(.2 .2)">
		<g transform ="translate(120 280)">
			<g transform ="rotate(-20)">
			<polygon fill="#000000" points="-50,-50 50,-50 -50,50 "/>
			<polygon fill="#000000" points="-50,50 50,-50 50,50"/>
			<g transform ="translate(0 120)">
				<polygon fill="#000000" points="-50,-50 50,-50 -50,50 "/>
				<polygon fill="#000000" points="-50,50 50,-50 50,50"/>
				</g>
				<g transform ="rotate(45)">
					<g transform="translate(160 80)">
						<g transform ="translate(0 120)">
							<polygon fill="#000000" points="-50,-50 50,-50 -50,50 "/>
							<polygon fill="#000000" points="-50,50 50,-50 50,50"/>
							<g transform ="translate(0 120)">
								<polygon fill="#000000" points="-50,-50 50,-50 -50,50 "/>
								<polygon fill="#000000" points="-50,50 50,-50 50,50"/>
							</g>
						</g>
					</g>
				</g>
			</g>
		</g>
	</g>

	<!-- left arm -->

	<g transform="scale(.2 .2)">
		<g transform ="translate(-280 -185)">
			<g transform ="rotate(-20)">	
				<polygon fill="#000000" points="-50,-50 50,-50 -50,50 "/>
				<polygon fill="#000000" points="-50,50 50,-50 50,50"/>
				<g transform ="translate(-120 0)">
					<polygon fill="#000000" points="-50,-50 50,-50 -50,50 "/>
					<polygon fill="#000000" points="-50,50 50,-50 50,50"/>
					<g transform ="translate(-120 0)">
						<polygon fill="#000000" points="-50,-50 50,-50 -50,50 "/>
						<polygon fill="#000000" points="-50,50 50,-50 50,50"/>
						<g transform ="translate(-120 0)">
							<polygon fill="#000000" points="-50,-50 50,-50 -50,50 "/>
							<polygon fill="#000000" points="-50,50 50,-50 50,50"/>
						</g>
					</g>
				</g>
			</g>
		</g>
	</g>


	<!-- right arm -->
	<g transform="scale(.2 .2)">
		<g transform ="translate(280 -200)">
			<polygon fill="#000000" points="-50,-50 50,-50 -50,50 "/>
			<polygon fill="#000000" points="-50,50 50,-50 50,50"/>
			<g transform ="translate(120 0)">
				<polygon fill="#000000" points="-50,-50 50,-50 -50,50 "/>
				<polygon fill="#000000" points="-50,50 50,-50 50,50"/>
				<g transform="rotate(-90)">
					<g transform ="translate(120 0)">
						<polygon fill="#000000" points="-50,-50 50,-50 -50,50 "/>
						<polygon fill="#000000" points="-50,50 50,-50 50,50"/>
						<g transform ="translate(120 0)">
							<polygon fill="#000000" points="-50,-50 50,-50 -50,50 "/>
							<polygon fill="#000000" points="-50,50 50,-50 50,50"/>
						</g>
					</g>
				</g>
			</g>
		</g>
	</g>

</g>


</svg>
